<?xml version="1.0" encoding="UTF-8"?>
<svg id="Layer_1" data-name="Layer 1" xmlns="http://www.w3.org/2000/svg" viewBox="0 0 1288 272">
  <defs>
    <style>
      .cls-1 {
        fill: #0E1414;
      }
    </style>
  </defs>
  <path class="cls-1" d="M751.07,41.68c44.77,0,84.17,32.24,84.17,79.7s-39.4,80-84.17,80-84.17-31.94-84.17-80,39.7-79.7,84.17-79.7Zm0,121.49c22.09,0,40.89-17.91,40.89-41.79s-18.8-41.49-40.89-41.49-40.89,17.61-40.89,41.49,19.1,41.79,40.89,41.79Z"/>
  <path class="cls-1" d="M846.88,41.68h44.48v24.18c12.83-17.91,28.95-24.18,47.46-24.18,42.98,0,54.62,34.33,54.62,73.13v83.28h-44.47V115.7c0-21.19-7.76-37.31-28.36-37.31s-29.25,16.42-29.25,37.61v82.09h-44.48V41.68Z"/>
  <path class="cls-1" d="M1058.11,42.01h42.39v34.92h-42.39v74.59c0,6.57,2.69,13.43,11.34,13.43s11.64-7.16,11.64-14.33c0-4.48-1.19-10.75-2.09-13.13h35.22c2.69,5.67,3.58,12.84,3.58,18.21,0,22.69-14.92,45.67-51.04,45.67-26.86,0-53.13-9.55-53.13-54.03l-.27-139.99h44.75V42.01Z"/>
  <g>
    <rect class="cls-1" x="3.66" y="41.68" width="44.48" height="156.41"/>
    <path class="cls-1" d="M184.25,41.68c-14.63,0-36.71,3.28-48.36,25.67-7.76-15.52-23.58-25.67-46.86-25.67-10.44,0-18.59,3.19-26.07,8.43v30.43c2.34-1.1,5.84-2.14,10.55-2.14,19.7,0,25.67,16.42,25.67,37.31v82.38h44.18V116c0-20.6,5.97-37.61,25.37-37.61s25.67,16.42,25.67,37.31v82.38h44.48V114.81c0-38.8-11.64-73.13-54.62-73.13Z"/>
  </g>
  <g>
    <rect class="cls-1" x="423.29" y="41.68" width="44.48" height="156.41"/>
    <path class="cls-1" d="M603.88,41.68c-14.63,0-36.71,3.28-48.36,25.67-7.76-15.52-23.58-25.67-46.86-25.67-10.44,0-18.59,3.19-26.07,8.43v30.43c2.34-1.1,5.84-2.14,10.55-2.14,19.7,0,25.67,16.42,25.67,37.31v82.38h44.18V116c0-20.6,5.97-37.61,25.37-37.61s25.67,16.42,25.67,37.31v82.38h44.48V114.81c0-38.8-11.64-73.13-54.62-73.13Z"/>
  </g>
  <g>
    <polygon class="cls-1" points="309.03 112.88 277.97 41.68 233.5 41.68 286.32 163.98 309.03 112.88"/>
    <polygon class="cls-1" points="362.42 41.68 263.32 264.65 307.92 264.65 407.01 41.68 362.42 41.68"/>
  </g>
  <g>
    <polygon class="cls-1" points="1186.35 112.88 1155.3 41.68 1110.82 41.68 1163.64 163.98 1186.35 112.88"/>
    <polygon class="cls-1" points="1239.74 41.68 1140.64 264.65 1185.24 264.65 1284.34 41.68 1239.74 41.68"/>
  </g>
</svg>
